<?xml version="1.0" standalone="no"?>
<!DOCTYPE svg PUBLIC "-//W3C//DTD SVG 20010904//EN"
 "http://www.w3.org/TR/2001/REC-SVG-20010904/DTD/svg10.dtd">
<svg version="1.0" xmlns="http://www.w3.org/2000/svg"
 width="1600.000000pt" height="1600.000000pt" viewBox="0 0 1600.000000 1600.000000"
 preserveAspectRatio="xMidYMid meet">

<g transform="translate(0.000000,1600.000000) scale(0.100000,-0.100000)"
fill="#000000" stroke="none">
<path d="M12875 11323 c10 -41 223 -831 295 -1096 36 -131 59 -232 54 -237
-13 -12 -787 -418 -860 -450 -33 -15 -116 -59 -185 -97 -148 -84 -447 -241
-804 -423 -143 -73 -271 -140 -285 -150 -33 -23 -760 -407 -828 -437 -29 -13
-65 -32 -80 -42 -15 -11 -333 -179 -707 -375 -374 -196 -705 -369 -735 -385
-107 -57 -2132 -1124 -2655 -1399 l-530 -278 -90 46 c-49 26 -1183 622 -2519
1325 -1336 702 -2435 1279 -2443 1282 -11 4 -13 -132 -13 -784 l0 -789 2521
-1378 c1811 -990 2524 -1375 2532 -1367 6 6 17 11 24 11 8 0 559 317 1226 704
3256 1889 3132 1817 3197 1850 30 15 57 31 60 35 3 4 93 59 200 121 107 62
839 486 1625 943 787 456 1441 836 1454 844 l24 15 -6 -53 c-3 -30 -12 -130
-21 -224 -9 -93 -28 -283 -41 -421 -14 -137 -25 -263 -25 -278 l0 -29 18 24
c10 13 146 213 302 444 155 231 293 431 305 445 12 14 25 33 28 42 3 10 380
572 837 1249 457 678 827 1235 823 1239 -4 4 -354 19 -778 34 -423 15 -997 36
-1275 47 -278 10 -538 19 -579 19 l-73 0 7 -27z"/>
<path d="M7135 4470 c-3 -5 -2 -10 4 -10 5 0 13 5 16 10 3 6 2 10 -4 10 -5 0
-13 -4 -16 -10z"/>
<path d="M6635 2349 c-10 -15 3 -25 16 -12 7 7 7 13 1 17 -6 3 -14 1 -17 -5z"/>
<path d="M5960 1650 c0 -13 5 -20 13 -17 6 2 12 10 12 17 0 7 -6 15 -12 18 -8
2 -13 -5 -13 -18z"/>
</g>
</svg>
